<svg width="512" height="160" viewBox="0 0 512 160" fill="none" xmlns="http://www.w3.org/2000/svg">
<path d="M79.655 0C35.664 0 0 35.663 0 79.654C0 123.647 35.664 159.307 79.655 159.307C123.651 159.307 159.311 123.647 159.311 79.654C159.311 35.666 123.651 0.004 79.654 0.004L79.655 0ZM116.185 114.884C115.845 115.441 115.399 115.926 114.871 116.31C114.344 116.694 113.746 116.971 113.111 117.123C112.477 117.276 111.819 117.303 111.174 117.201C110.53 117.099 109.911 116.871 109.355 116.53C90.653 105.106 67.109 102.519 39.382 108.854C38.0981 109.146 36.7508 108.916 35.6363 108.215C34.5217 107.514 33.731 106.4 33.438 105.116C33.292 104.48 33.2728 103.822 33.3815 103.179C33.4902 102.536 33.7247 101.921 34.0716 101.369C34.4184 100.817 34.8708 100.338 35.4029 99.961C35.9349 99.5839 36.5361 99.3154 37.172 99.171C67.515 92.238 93.542 95.223 114.539 108.055C115.096 108.395 115.58 108.842 115.964 109.369C116.348 109.897 116.624 110.495 116.777 111.129C116.93 111.763 116.956 112.422 116.854 113.066C116.753 113.711 116.525 114.329 116.184 114.885M125.934 93.196C124.135 96.118 120.312 97.041 117.391 95.243C95.981 82.083 63.342 78.271 38.017 85.959C36.4406 86.4361 34.7392 86.2684 33.2863 85.4926C31.8334 84.7169 30.7475 83.3964 30.267 81.821C29.7918 80.2448 29.9608 78.5445 30.737 77.0928C31.5132 75.641 32.8333 74.5562 34.408 74.076C63.337 65.298 99.3 69.55 123.888 84.659C126.808 86.457 127.731 90.281 125.933 93.197L125.934 93.196ZM126.77 70.611C101.1 55.362 58.742 53.96 34.231 61.4C30.295 62.594 26.133 60.372 24.941 56.436C24.3675 54.5451 24.5684 52.5039 25.4994 50.7611C26.4305 49.0183 28.0155 47.7166 29.906 47.142C58.043 38.6 104.818 40.25 134.375 57.797C135.217 58.2953 135.953 58.955 136.54 59.7381C137.127 60.5212 137.554 61.4125 137.796 62.3608C138.038 63.3091 138.091 64.2959 137.951 65.2646C137.811 66.2333 137.481 67.1649 136.981 68.006C134.889 71.546 130.304 72.713 126.775 70.611H126.77ZM216.714 73.533C202.96 70.253 200.516 67.952 200.516 63.115C200.516 58.545 204.815 55.47 211.216 55.47C217.418 55.47 223.563 57.806 230.012 62.613C230.202 62.758 230.449 62.816 230.687 62.778C230.807 62.7609 230.922 62.7195 231.025 62.6564C231.128 62.5933 231.217 62.5098 231.287 62.411L238.002 52.945C238.135 52.7574 238.191 52.5262 238.159 52.2986C238.127 52.071 238.01 51.8641 237.831 51.72C230.155 45.563 221.518 42.57 211.416 42.57C196.568 42.57 186.191 51.481 186.191 64.232C186.191 77.905 195.141 82.747 210.608 86.484C223.763 89.515 225.988 92.054 225.988 96.594C225.988 101.626 221.498 104.755 214.27 104.755C206.242 104.755 199.688 102.045 192.364 95.709C192.181 95.5549 191.947 95.4769 191.708 95.491C191.589 95.4991 191.473 95.531 191.367 95.5847C191.26 95.6385 191.166 95.7131 191.089 95.804L183.556 104.764C183.405 104.944 183.329 105.175 183.345 105.409C183.361 105.644 183.468 105.863 183.642 106.02C192.164 113.63 202.646 117.644 213.965 117.644C229.965 117.644 240.304 108.902 240.304 95.367C240.332 83.946 233.494 77.621 216.743 73.546L216.714 73.533ZM276.506 59.969C269.572 59.969 263.884 62.701 259.185 68.299V61.999C259.185 61.501 258.785 61.096 258.291 61.096H245.973C245.735 61.0973 245.507 61.193 245.339 61.3621C245.172 61.5312 245.078 61.7599 245.079 61.998V132.007C245.079 132.501 245.479 132.91 245.973 132.91H258.291C258.529 132.908 258.757 132.812 258.924 132.643C259.092 132.474 259.186 132.245 259.185 132.007V109.91C263.884 115.17 269.572 117.748 276.505 117.748C289.395 117.748 302.445 107.828 302.445 88.862C302.464 69.892 289.413 59.968 276.515 59.968L276.506 59.969ZM288.12 88.862C288.12 98.515 282.175 105.259 273.652 105.259C265.234 105.259 258.88 98.211 258.88 88.862C258.88 79.512 265.234 72.465 273.652 72.465C282.032 72.465 288.12 79.359 288.12 88.862ZM335.879 59.969C319.281 59.969 306.278 72.749 306.278 89.069C306.278 105.212 319.195 117.853 335.679 117.853C352.334 117.853 365.375 105.117 365.375 88.862C365.375 72.662 352.42 59.972 335.879 59.972V59.969ZM335.879 105.354C327.052 105.354 320.394 98.258 320.394 88.857C320.394 79.413 326.824 72.559 335.679 72.559C344.563 72.559 351.259 79.652 351.259 89.063C351.259 98.506 344.791 105.354 335.879 105.354ZM400.816 61.096H387.262V47.24C387.262 46.743 386.862 46.338 386.368 46.338H374.05C373.811 46.3385 373.581 46.4337 373.412 46.6026C373.243 46.7716 373.147 47.0008 373.146 47.24V61.095H367.23C366.992 61.0963 366.764 61.192 366.596 61.3611C366.429 61.5302 366.335 61.7589 366.336 61.997V72.581C366.335 72.8192 366.429 73.048 366.596 73.2172C366.764 73.3865 366.992 73.4824 367.23 73.484H373.146V100.874C373.146 111.936 378.654 117.548 389.526 117.548C393.939 117.548 397.601 116.634 401.054 114.675C401.194 114.598 401.31 114.486 401.39 114.348C401.471 114.211 401.512 114.054 401.511 113.895V103.812C401.51 103.659 401.471 103.509 401.396 103.376C401.321 103.243 401.213 103.132 401.083 103.052C400.953 102.969 400.804 102.921 400.65 102.915C400.496 102.908 400.343 102.942 400.207 103.013C397.839 104.203 395.547 104.754 392.978 104.754C389.031 104.754 387.262 102.956 387.262 98.942V73.49H400.816C401.054 73.4887 401.282 73.3928 401.45 73.2235C401.617 73.0542 401.711 72.8253 401.71 72.587V62.003C401.714 61.8849 401.694 61.7673 401.651 61.6571C401.609 61.547 401.544 61.4466 401.461 61.3622C401.379 61.2778 401.28 61.211 401.171 61.166C401.061 61.1209 400.944 61.0984 400.826 61.1L400.816 61.096ZM448.033 61.15V59.448C448.033 54.442 449.954 52.21 454.253 52.21C456.823 52.21 458.886 52.72 461.198 53.49C461.333 53.5355 461.478 53.5479 461.619 53.5262C461.76 53.5046 461.894 53.4495 462.009 53.3655C462.125 53.2815 462.219 53.1711 462.283 53.0435C462.347 52.9159 462.38 52.7748 462.378 52.632L462.377 42.255C462.379 42.0612 462.318 41.8718 462.204 41.7157C462.089 41.5596 461.926 41.4453 461.74 41.39C459.305 40.664 456.185 39.92 451.505 39.92C440.138 39.92 434.117 46.325 434.117 58.436V61.042H428.201C427.962 61.0425 427.732 61.1377 427.563 61.3066C427.394 61.4756 427.298 61.7048 427.297 61.944V72.582C427.297 73.079 427.707 73.485 428.201 73.485H434.117V115.722C434.117 116.226 434.527 116.626 435.021 116.626H447.329C447.833 116.626 448.233 116.226 448.233 115.722V73.487H459.733L477.349 115.721C475.351 120.154 473.382 121.038 470.699 121.038C468.531 121.038 466.239 120.392 463.909 119.108C463.688 118.996 463.433 118.972 463.195 119.041C463.077 119.081 462.969 119.144 462.878 119.228C462.786 119.311 462.712 119.413 462.662 119.526L458.487 128.686C458.391 128.894 458.378 129.131 458.45 129.348C458.523 129.566 458.675 129.747 458.877 129.856C463.233 132.215 467.161 133.223 472.022 133.223C481.115 133.223 486.147 128.981 490.57 117.586L511.934 62.382C511.99 62.2455 512.01 62.0973 511.993 61.9509C511.977 61.8045 511.924 61.6646 511.839 61.544C511.759 61.4232 511.65 61.3242 511.522 61.2558C511.394 61.1874 511.251 61.1517 511.106 61.152H498.284C498.096 61.151 497.912 61.2087 497.759 61.3172C497.605 61.4257 497.49 61.5795 497.428 61.757L484.292 99.266L469.91 61.732C469.846 61.5619 469.731 61.4155 469.582 61.3119C469.432 61.2083 469.255 61.1526 469.073 61.152H448.033V61.15ZM420.658 61.096H408.34C408.101 61.0971 407.872 61.1924 407.703 61.3613C407.534 61.5302 407.438 61.759 407.437 61.998V115.722C407.437 116.226 407.846 116.626 408.34 116.626H420.658C421.153 116.626 421.562 116.226 421.562 115.722V62.002C421.562 61.8832 421.539 61.7655 421.494 61.6557C421.449 61.5459 421.382 61.4462 421.298 61.3622C421.214 61.2783 421.114 61.2118 421.004 61.1666C420.894 61.1215 420.777 61.0985 420.658 61.099V61.096ZM414.57 36.632C409.69 36.632 405.734 40.582 405.734 45.46C405.734 46.6204 405.962 47.7695 406.406 48.8415C406.85 49.9136 407.501 50.8878 408.322 51.7083C409.142 52.5288 410.116 53.1797 411.188 53.6237C412.261 54.0677 413.41 54.2961 414.57 54.296C419.45 54.296 423.397 50.342 423.397 45.46C423.396 43.119 422.466 40.874 420.811 39.2186C419.156 37.5632 416.911 36.6328 414.57 36.632Z" fill="#1ED760"/>
</svg>
